# xmcd
#
# Track frame offsets:
# 150
# 18763
# 35686
# 53151
# 75354
# 90836
# 112007
# 124109
# 140310
# 156505
# 166320
# 187186
# 199676
#
# Disc length: 2958 seconds
#
#
# Revision: 0
# Processed by: cddbd v1.5.2PL0 Copyright (c) Steve Scherf et al.
# Submitted via: FreeRIP 2.70 
#
DISCID=a30b8c0d
DTITLE=The Country Trail Band - Country Gospel Classics
DYEAR=1900
DGENRE=Country
TTITLE0=Green Pastures
TTITLE1=House of Gold
TTITLE2=Life's Railway To Heaven
TTITLE3=Where Could I Go
TTITLE4=Wings Of A Dove
TTITLE5=I Love To Tell The Story
TTITLE6=Hallelujah, I'm Ready
TTITLE7=I Surrender All
TTITLE8=Keep The Sunny Side
TTITLE9=When God Comes And gathers His Jewels
TTITLE10=Drifting Too Far From The Shore
TTITLE11=I'll Fly Away
TTITLE12=Amazing Grace
EXTD=
EXTT0=
EXTT1=
EXTT2=
EXTT3=
EXTT4=
EXTT5=
EXTT6=
EXTT7=
EXTT8=
EXTT9=
EXTT10=
EXTT11=
EXTT12=
PLAYORDER=
